<svg xmlns="http://www.w3.org/2000/svg" xmlns:xlink="http://www.w3.org/1999/xlink" fill="none" version="1.1" width="24" height="24" viewBox="0 0 24 24"><defs><clipPath id="master_svg0_82_197"><rect x="-0.6000000238418579" y="-0.6000000238418579" width="25.200000047683716" height="25.200000047683716" rx="0"/></clipPath></defs><g clip-path="url(#master_svg0_82_197)"><path d="M5.3163020016003415,9.452456268411254L7.7896921716003416,8.036664968411255L7.193556071600342,6.995213468411254L4.720165591600342,8.411004268411254Q3.915014151600342,8.871880768411256,3.9150140916003418,9.799607068411255L3.9150143816003418,17.826766668411253Q3.915014441600342,18.754495668411256,4.720168191600342,19.215369668411256L11.744858271600343,23.236363668411254Q12.539708571600341,23.691344668411254,13.334557071600342,23.236361668411256L20.35924717160034,19.215367668411254Q21.164398171600343,18.754493668411257,21.164398171600343,17.826766668411253L21.164398171600343,9.799607068411255Q21.164398171600343,8.871882168411254,20.35924717160034,8.411004768411255L13.345585371600341,4.396320508411255Q12.533089171600341,3.9312394284112546,11.729594271600341,4.411705988411255L10.981612671600342,4.858976838411255L11.597469771600341,5.888889168411255L12.345450871600342,5.441618318411255Q12.546324271600342,5.321501608411255,12.749449271600342,5.437772158411255L19.763110171600342,9.452455268411255Q19.964398171600344,9.567674868411256,19.964398171600344,9.799607068411255L19.964398171600344,17.826766668411253Q19.964398171600344,18.058697668411256,19.763110171600342,18.173915668411254L12.738417171600341,22.194912668411256Q12.539706671600342,22.308657668411254,12.34099487160034,22.194911668411255L5.316300511600342,18.173914668411257Q5.115014431600342,18.058696668411255,5.115014431600342,17.826766668411253L5.115014131600342,9.799607068411255Q5.115014191600341,9.567675368411255,5.3163020016003415,9.452456268411254Z" fill-rule="evenodd" fill="#000000" fill-opacity="1"/><path d="M11.955699937994385,8.6733398L11.955478237994384,2.3765583Q11.955455337994385,1.7309078,11.391721437994384,1.41615787L9.950552737994386,0.61150783Q9.417098037994386,0.31366366,8.882328937994385,0.60914019L7.4233669859943845,1.4152615100000001Q6.855347517994385,1.72910988,6.855347517994385,2.3780682L6.855347517994385,16.570185000000002Q6.855347517994385,17.215902,7.419157783994385,17.530653L12.061799037994385,20.122446Q12.604510737994385,20.425419,13.144063037994385,20.116861L17.670111537994387,17.528526Q18.224038537994385,17.21175,18.224038537994385,16.573644L18.224038537994385,11.413709Q18.224038537994385,10.7643499,17.655497537994385,10.450614L13.694017837994384,8.264572099999999Q13.136383037994385,7.9568543,12.591890337994386,8.287273899999999L11.955699937994385,8.6733398ZM10.755480337994385,2.4352961L9.414055937994384,1.68633634L8.055347557994384,2.4370643999999997L8.055347557994384,16.511483L12.597395937994385,19.047119L17.024037837994385,16.515633L17.024037837994385,11.47274L13.164937537994385,9.343195L12.426374937994385,9.7913847Q11.876583537994385,10.125021,11.316155437994386,9.8095789Q10.755728037994384,9.4941359,10.755705637994385,8.851031800000001L10.755480337994385,2.4352961Z" fill-rule="evenodd" fill="#000000" fill-opacity="1"/><path d="M10.01557782430725,3.900733694996643L11.532699124307252,3.102401974996643L10.973887224307251,2.040455814996643L9.41557752430725,2.860461504996643L7.857267914307251,2.040455814996643L7.298456134307251,3.102401974996643L8.81557762430725,3.900733794996643L8.81557762430725,11.831635094996644Q8.815578124307251,12.471071794996643,9.37040022430725,12.787670894996642L12.03066132430725,14.305693894996644L12.03066132430725,19.736267894996644L13.23066112430725,19.736267894996644L13.23066112430725,14.303274894996644L17.92455402430725,11.587071994996643L17.323527624307253,10.548434394996644L12.628570324307251,13.265251894996643L10.01557782430725,11.774200994996644L10.01557782430725,3.900733694996643Z" fill-rule="evenodd" fill="#000000" fill-opacity="1"/></g></svg>